<mxfile host="app.diagrams.net" agent="Mozilla/5.0 (Windows NT 10.0; Win64; x64; rv:137.0) Gecko/20100101 Firefox/137.0" version="26.2.14">
  <diagram name="Page-1" id="0t3gRtOkfCPLEtk6LwFw">
    <mxGraphModel dx="1213" dy="738" grid="1" gridSize="10" guides="1" tooltips="1" connect="1" arrows="1" fold="1" page="1" pageScale="1" pageWidth="850" pageHeight="1100" math="0" shadow="0">
      <root>
        <mxCell id="0" />
        <mxCell id="1" parent="0" />
        <mxCell id="aUcYhCLIbQXx3DJ2oYsx-1" value="Default Entity" style="swimlane;fontStyle=1;align=center;verticalAlign=top;childLayout=stackLayout;horizontal=1;startSize=26;horizontalStack=0;resizeParent=1;resizeParentMax=0;resizeLast=0;collapsible=1;marginBottom=0;whiteSpace=wrap;html=1;" parent="1" vertex="1">
          <mxGeometry x="20" y="20" width="160" height="280" as="geometry" />
        </mxCell>
        <mxCell id="aUcYhCLIbQXx3DJ2oYsx-2" value="&lt;div&gt;-name: String&lt;/div&gt;&lt;div&gt;-hitPoints: int&lt;/div&gt;&lt;div&gt;-attack: int&lt;/div&gt;" style="text;strokeColor=none;fillColor=none;align=left;verticalAlign=top;spacingLeft=4;spacingRight=4;overflow=hidden;rotatable=0;points=[[0,0.5],[1,0.5]];portConstraint=eastwest;whiteSpace=wrap;html=1;" parent="aUcYhCLIbQXx3DJ2oYsx-1" vertex="1">
          <mxGeometry y="26" width="160" height="54" as="geometry" />
        </mxCell>
        <mxCell id="aUcYhCLIbQXx3DJ2oYsx-3" value="" style="line;strokeWidth=1;fillColor=none;align=left;verticalAlign=middle;spacingTop=-1;spacingLeft=3;spacingRight=3;rotatable=0;labelPosition=right;points=[];portConstraint=eastwest;strokeColor=inherit;" parent="aUcYhCLIbQXx3DJ2oYsx-1" vertex="1">
          <mxGeometry y="80" width="160" height="8" as="geometry" />
        </mxCell>
        <mxCell id="aUcYhCLIbQXx3DJ2oYsx-4" value="&lt;div&gt;+getHitPoints(): int&lt;/div&gt;&lt;div&gt;&lt;br&gt;&lt;/div&gt;&lt;div&gt;+getName(): String&lt;/div&gt;&lt;div&gt;&lt;br&gt;&lt;/div&gt;&lt;div&gt;+getAttack(): int&lt;/div&gt;&lt;div&gt;&lt;br&gt;&lt;/div&gt;&lt;div&gt;+setHitPoints(int): void&lt;/div&gt;&lt;div&gt;&lt;br&gt;&lt;/div&gt;&lt;div&gt;+setName(String): void&lt;/div&gt;&lt;div&gt;&lt;br&gt;&lt;/div&gt;&lt;div&gt;+setAttack(): void&lt;/div&gt;" style="text;strokeColor=none;fillColor=none;align=left;verticalAlign=top;spacingLeft=4;spacingRight=4;overflow=hidden;rotatable=0;points=[[0,0.5],[1,0.5]];portConstraint=eastwest;whiteSpace=wrap;html=1;" parent="aUcYhCLIbQXx3DJ2oYsx-1" vertex="1">
          <mxGeometry y="88" width="160" height="192" as="geometry" />
        </mxCell>
        <mxCell id="iLqWerZTy7hUYoZ8PlAZ-1" value="Hero" style="swimlane;fontStyle=1;align=center;verticalAlign=top;childLayout=stackLayout;horizontal=1;startSize=26;horizontalStack=0;resizeParent=1;resizeParentMax=0;resizeLast=0;collapsible=1;marginBottom=0;whiteSpace=wrap;html=1;" vertex="1" parent="1">
          <mxGeometry x="20" y="420" width="200" height="390" as="geometry" />
        </mxCell>
        <mxCell id="iLqWerZTy7hUYoZ8PlAZ-2" value="&lt;div&gt;-name: String&lt;/div&gt;&lt;div&gt;-hitPoints: int&lt;/div&gt;&lt;div&gt;-attack: int&lt;/div&gt;" style="text;strokeColor=none;fillColor=none;align=left;verticalAlign=top;spacingLeft=4;spacingRight=4;overflow=hidden;rotatable=0;points=[[0,0.5],[1,0.5]];portConstraint=eastwest;whiteSpace=wrap;html=1;" vertex="1" parent="iLqWerZTy7hUYoZ8PlAZ-1">
          <mxGeometry y="26" width="200" height="54" as="geometry" />
        </mxCell>
        <mxCell id="iLqWerZTy7hUYoZ8PlAZ-3" value="" style="line;strokeWidth=1;fillColor=none;align=left;verticalAlign=middle;spacingTop=-1;spacingLeft=3;spacingRight=3;rotatable=0;labelPosition=right;points=[];portConstraint=eastwest;strokeColor=inherit;" vertex="1" parent="iLqWerZTy7hUYoZ8PlAZ-1">
          <mxGeometry y="80" width="200" height="8" as="geometry" />
        </mxCell>
        <mxCell id="iLqWerZTy7hUYoZ8PlAZ-4" value="&lt;div&gt;+getHitPoints(): int&lt;/div&gt;&lt;div&gt;&lt;br&gt;&lt;/div&gt;&lt;div&gt;+getName(): String&lt;/div&gt;&lt;div&gt;&lt;br&gt;&lt;/div&gt;&lt;div&gt;+getAttack(): int&lt;/div&gt;&lt;div&gt;&lt;br&gt;&lt;/div&gt;&lt;div&gt;+setHitPoints(int: value): void&lt;/div&gt;&lt;div&gt;&lt;br&gt;&lt;/div&gt;&lt;div&gt;+setName(String: name): void&lt;/div&gt;&lt;div&gt;&lt;br&gt;&lt;/div&gt;&lt;div&gt;+setAttack(): void&lt;/div&gt;&lt;div&gt;&lt;br&gt;&lt;/div&gt;&lt;div&gt;-addToInventory(Obj: item): void&lt;/div&gt;&lt;div&gt;&lt;br&gt;&lt;/div&gt;&lt;div&gt;-removeInventory(Obj: item): void&lt;/div&gt;&lt;div&gt;&lt;br&gt;&lt;/div&gt;&lt;div&gt;-openInventory(): DB: Inventory&lt;/div&gt;&lt;div&gt;&lt;br&gt;&lt;/div&gt;&lt;div&gt;-useSpecial(): Void&lt;/div&gt;" style="text;strokeColor=none;fillColor=none;align=left;verticalAlign=top;spacingLeft=4;spacingRight=4;overflow=hidden;rotatable=0;points=[[0,0.5],[1,0.5]];portConstraint=eastwest;whiteSpace=wrap;html=1;" vertex="1" parent="iLqWerZTy7hUYoZ8PlAZ-1">
          <mxGeometry y="88" width="200" height="302" as="geometry" />
        </mxCell>
        <mxCell id="iLqWerZTy7hUYoZ8PlAZ-11" value="Extends" style="endArrow=block;endSize=16;endFill=0;html=1;rounded=0;" edge="1" parent="1" target="aUcYhCLIbQXx3DJ2oYsx-4">
          <mxGeometry width="160" relative="1" as="geometry">
            <mxPoint x="100" y="419" as="sourcePoint" />
            <mxPoint x="260" y="419" as="targetPoint" />
          </mxGeometry>
        </mxCell>
        <mxCell id="iLqWerZTy7hUYoZ8PlAZ-12" value="" style="shape=datastore;whiteSpace=wrap;html=1;" vertex="1" parent="1">
          <mxGeometry x="240" y="360" width="60" height="60" as="geometry" />
        </mxCell>
        <mxCell id="iLqWerZTy7hUYoZ8PlAZ-13" value="" style="endArrow=diamondThin;endFill=1;endSize=24;html=1;rounded=0;entryX=0.15;entryY=0.95;entryDx=0;entryDy=0;entryPerimeter=0;exitX=1;exitY=0.5;exitDx=0;exitDy=0;" edge="1" parent="1" source="iLqWerZTy7hUYoZ8PlAZ-2" target="iLqWerZTy7hUYoZ8PlAZ-12">
          <mxGeometry width="160" relative="1" as="geometry">
            <mxPoint x="180" y="554.5" as="sourcePoint" />
            <mxPoint x="340" y="554.5" as="targetPoint" />
          </mxGeometry>
        </mxCell>
        <mxCell id="iLqWerZTy7hUYoZ8PlAZ-14" value="&lt;div&gt;&amp;lt;&amp;lt;Database&amp;gt;&amp;gt;&lt;/div&gt;&lt;div&gt;Inventory&lt;/div&gt;" style="text;html=1;align=center;verticalAlign=middle;resizable=0;points=[];autosize=1;strokeColor=none;fillColor=none;" vertex="1" parent="1">
          <mxGeometry x="220" y="320" width="100" height="40" as="geometry" />
        </mxCell>
        <mxCell id="iLqWerZTy7hUYoZ8PlAZ-15" value="Class" style="swimlane;fontStyle=1;align=center;verticalAlign=top;childLayout=stackLayout;horizontal=1;startSize=26;horizontalStack=0;resizeParent=1;resizeParentMax=0;resizeLast=0;collapsible=1;marginBottom=0;whiteSpace=wrap;html=1;" vertex="1" parent="1">
          <mxGeometry x="40" y="870" width="160" height="86" as="geometry" />
        </mxCell>
        <mxCell id="iLqWerZTy7hUYoZ8PlAZ-16" value="+ClassType: String" style="text;strokeColor=none;fillColor=none;align=left;verticalAlign=top;spacingLeft=4;spacingRight=4;overflow=hidden;rotatable=0;points=[[0,0.5],[1,0.5]];portConstraint=eastwest;whiteSpace=wrap;html=1;" vertex="1" parent="iLqWerZTy7hUYoZ8PlAZ-15">
          <mxGeometry y="26" width="160" height="26" as="geometry" />
        </mxCell>
        <mxCell id="iLqWerZTy7hUYoZ8PlAZ-17" value="" style="line;strokeWidth=1;fillColor=none;align=left;verticalAlign=middle;spacingTop=-1;spacingLeft=3;spacingRight=3;rotatable=0;labelPosition=right;points=[];portConstraint=eastwest;strokeColor=inherit;" vertex="1" parent="iLqWerZTy7hUYoZ8PlAZ-15">
          <mxGeometry y="52" width="160" height="8" as="geometry" />
        </mxCell>
        <mxCell id="iLqWerZTy7hUYoZ8PlAZ-18" value="+specialAbility(): void" style="text;strokeColor=none;fillColor=none;align=left;verticalAlign=top;spacingLeft=4;spacingRight=4;overflow=hidden;rotatable=0;points=[[0,0.5],[1,0.5]];portConstraint=eastwest;whiteSpace=wrap;html=1;" vertex="1" parent="iLqWerZTy7hUYoZ8PlAZ-15">
          <mxGeometry y="60" width="160" height="26" as="geometry" />
        </mxCell>
        <mxCell id="iLqWerZTy7hUYoZ8PlAZ-19" value="" style="endArrow=diamondThin;endFill=1;endSize=24;html=1;rounded=0;entryX=0.5;entryY=0;entryDx=0;entryDy=0;" edge="1" parent="1" source="iLqWerZTy7hUYoZ8PlAZ-4" target="iLqWerZTy7hUYoZ8PlAZ-15">
          <mxGeometry width="160" relative="1" as="geometry">
            <mxPoint x="205" y="635.5" as="sourcePoint" />
            <mxPoint x="365" y="635.5" as="targetPoint" />
          </mxGeometry>
        </mxCell>
        <mxCell id="iLqWerZTy7hUYoZ8PlAZ-20" value="Room" style="swimlane;fontStyle=1;align=center;verticalAlign=top;childLayout=stackLayout;horizontal=1;startSize=26;horizontalStack=0;resizeParent=1;resizeParentMax=0;resizeLast=0;collapsible=1;marginBottom=0;whiteSpace=wrap;html=1;" vertex="1" parent="1">
          <mxGeometry x="580" y="20" width="190" height="310" as="geometry" />
        </mxCell>
        <mxCell id="iLqWerZTy7hUYoZ8PlAZ-21" value="&lt;div&gt;-roomType: String&lt;/div&gt;&lt;div&gt;-roomLength: int&lt;/div&gt;&lt;div&gt;-roomWidth: int&lt;/div&gt;&lt;div&gt;-roomDoors: int&lt;/div&gt;&lt;div&gt;-roomItems: Dict: items&lt;/div&gt;" style="text;strokeColor=none;fillColor=none;align=left;verticalAlign=top;spacingLeft=4;spacingRight=4;overflow=hidden;rotatable=0;points=[[0,0.5],[1,0.5]];portConstraint=eastwest;whiteSpace=wrap;html=1;" vertex="1" parent="iLqWerZTy7hUYoZ8PlAZ-20">
          <mxGeometry y="26" width="190" height="84" as="geometry" />
        </mxCell>
        <mxCell id="iLqWerZTy7hUYoZ8PlAZ-22" value="" style="line;strokeWidth=1;fillColor=none;align=left;verticalAlign=middle;spacingTop=-1;spacingLeft=3;spacingRight=3;rotatable=0;labelPosition=right;points=[];portConstraint=eastwest;strokeColor=inherit;" vertex="1" parent="iLqWerZTy7hUYoZ8PlAZ-20">
          <mxGeometry y="110" width="190" height="8" as="geometry" />
        </mxCell>
        <mxCell id="iLqWerZTy7hUYoZ8PlAZ-23" value="&lt;div&gt;+getType(): String&lt;/div&gt;&lt;div&gt;&lt;br&gt;&lt;/div&gt;&lt;div&gt;+getLength(): int&lt;/div&gt;&lt;div&gt;&lt;br&gt;&lt;/div&gt;&lt;div&gt;+getWidth(): int&lt;/div&gt;&lt;div&gt;&lt;br&gt;&lt;/div&gt;&lt;div&gt;+getDoors(): int&lt;/div&gt;&lt;div&gt;&lt;br&gt;&lt;/div&gt;&lt;div&gt;-setItems(roomType): void&lt;/div&gt;&lt;div&gt;&lt;br&gt;&lt;/div&gt;&lt;div&gt;-placeEnemies(int: amount) void&lt;/div&gt;&lt;div&gt;&lt;br&gt;&lt;/div&gt;&lt;div&gt;&lt;br&gt;&lt;/div&gt;" style="text;strokeColor=none;fillColor=none;align=left;verticalAlign=top;spacingLeft=4;spacingRight=4;overflow=hidden;rotatable=0;points=[[0,0.5],[1,0.5]];portConstraint=eastwest;whiteSpace=wrap;html=1;" vertex="1" parent="iLqWerZTy7hUYoZ8PlAZ-20">
          <mxGeometry y="118" width="190" height="192" as="geometry" />
        </mxCell>
        <mxCell id="iLqWerZTy7hUYoZ8PlAZ-24" value="Enemy" style="swimlane;fontStyle=1;align=center;verticalAlign=top;childLayout=stackLayout;horizontal=1;startSize=26;horizontalStack=0;resizeParent=1;resizeParentMax=0;resizeLast=0;collapsible=1;marginBottom=0;whiteSpace=wrap;html=1;" vertex="1" parent="1">
          <mxGeometry x="280" y="20" width="190" height="290" as="geometry" />
        </mxCell>
        <mxCell id="iLqWerZTy7hUYoZ8PlAZ-25" value="&lt;div&gt;-name: String&lt;/div&gt;&lt;div&gt;-hitPoints: int&lt;/div&gt;&lt;div&gt;-attack: int&lt;/div&gt;" style="text;strokeColor=none;fillColor=none;align=left;verticalAlign=top;spacingLeft=4;spacingRight=4;overflow=hidden;rotatable=0;points=[[0,0.5],[1,0.5]];portConstraint=eastwest;whiteSpace=wrap;html=1;" vertex="1" parent="iLqWerZTy7hUYoZ8PlAZ-24">
          <mxGeometry y="26" width="190" height="54" as="geometry" />
        </mxCell>
        <mxCell id="iLqWerZTy7hUYoZ8PlAZ-26" value="" style="line;strokeWidth=1;fillColor=none;align=left;verticalAlign=middle;spacingTop=-1;spacingLeft=3;spacingRight=3;rotatable=0;labelPosition=right;points=[];portConstraint=eastwest;strokeColor=inherit;" vertex="1" parent="iLqWerZTy7hUYoZ8PlAZ-24">
          <mxGeometry y="80" width="190" height="8" as="geometry" />
        </mxCell>
        <mxCell id="iLqWerZTy7hUYoZ8PlAZ-27" value="&lt;div&gt;+getHitPoints(): int&lt;/div&gt;&lt;div&gt;&lt;br&gt;&lt;/div&gt;&lt;div&gt;+getName(): String&lt;/div&gt;&lt;div&gt;&lt;br&gt;&lt;/div&gt;&lt;div&gt;+getAttack(): int&lt;/div&gt;&lt;div&gt;&lt;br&gt;&lt;/div&gt;&lt;div&gt;+setHitPoints(int): void&lt;/div&gt;&lt;div&gt;&lt;br&gt;&lt;/div&gt;&lt;div&gt;+setName(String): void&lt;/div&gt;&lt;div&gt;&lt;br&gt;&lt;/div&gt;&lt;div&gt;+setAttack(): void&lt;/div&gt;&lt;div&gt;&lt;br&gt;&lt;/div&gt;&lt;div&gt;+addToInventory(Obj:item) void&lt;/div&gt;" style="text;strokeColor=none;fillColor=none;align=left;verticalAlign=top;spacingLeft=4;spacingRight=4;overflow=hidden;rotatable=0;points=[[0,0.5],[1,0.5]];portConstraint=eastwest;whiteSpace=wrap;html=1;" vertex="1" parent="iLqWerZTy7hUYoZ8PlAZ-24">
          <mxGeometry y="88" width="190" height="202" as="geometry" />
        </mxCell>
        <mxCell id="iLqWerZTy7hUYoZ8PlAZ-28" value="Extends" style="endArrow=block;endSize=16;endFill=0;html=1;rounded=0;entryX=1;entryY=0.5;entryDx=0;entryDy=0;exitX=0;exitY=0.5;exitDx=0;exitDy=0;" edge="1" parent="1" source="iLqWerZTy7hUYoZ8PlAZ-27" target="aUcYhCLIbQXx3DJ2oYsx-4">
          <mxGeometry width="160" relative="1" as="geometry">
            <mxPoint x="240" y="190" as="sourcePoint" />
            <mxPoint x="400" y="190" as="targetPoint" />
          </mxGeometry>
        </mxCell>
        <mxCell id="iLqWerZTy7hUYoZ8PlAZ-29" value="" style="endArrow=diamondThin;endFill=1;endSize=24;html=1;rounded=0;exitX=0.521;exitY=0.993;exitDx=0;exitDy=0;entryX=0.85;entryY=0.05;entryDx=0;entryDy=0;exitPerimeter=0;entryPerimeter=0;" edge="1" parent="1" source="iLqWerZTy7hUYoZ8PlAZ-27" target="iLqWerZTy7hUYoZ8PlAZ-12">
          <mxGeometry width="160" relative="1" as="geometry">
            <mxPoint x="420" y="370" as="sourcePoint" />
            <mxPoint x="580" y="370" as="targetPoint" />
          </mxGeometry>
        </mxCell>
        <mxCell id="iLqWerZTy7hUYoZ8PlAZ-30" value="" style="endArrow=diamondThin;endFill=1;endSize=24;html=1;rounded=0;exitX=0;exitY=0.5;exitDx=0;exitDy=0;entryX=1;entryY=0.5;entryDx=0;entryDy=0;" edge="1" parent="1" source="iLqWerZTy7hUYoZ8PlAZ-39" target="iLqWerZTy7hUYoZ8PlAZ-27">
          <mxGeometry width="160" relative="1" as="geometry">
            <mxPoint x="420" y="370" as="sourcePoint" />
            <mxPoint x="580" y="370" as="targetPoint" />
          </mxGeometry>
        </mxCell>
        <mxCell id="iLqWerZTy7hUYoZ8PlAZ-31" value="" style="shape=datastore;whiteSpace=wrap;html=1;" vertex="1" parent="1">
          <mxGeometry x="390" y="360" width="60" height="60" as="geometry" />
        </mxCell>
        <mxCell id="iLqWerZTy7hUYoZ8PlAZ-32" value="&lt;div&gt;&amp;lt;&amp;lt;Database&amp;gt;&amp;gt;&lt;/div&gt;&lt;div&gt;Items&lt;/div&gt;" style="text;html=1;align=center;verticalAlign=middle;resizable=0;points=[];autosize=1;strokeColor=none;fillColor=none;" vertex="1" parent="1">
          <mxGeometry x="370" y="320" width="100" height="40" as="geometry" />
        </mxCell>
        <mxCell id="iLqWerZTy7hUYoZ8PlAZ-33" value="" style="endArrow=diamondThin;endFill=0;endSize=24;html=1;rounded=0;entryX=0;entryY=0.5;entryDx=0;entryDy=0;" edge="1" parent="1" target="iLqWerZTy7hUYoZ8PlAZ-31">
          <mxGeometry width="160" relative="1" as="geometry">
            <mxPoint x="300" y="389.5" as="sourcePoint" />
            <mxPoint x="460" y="389.5" as="targetPoint" />
          </mxGeometry>
        </mxCell>
        <mxCell id="iLqWerZTy7hUYoZ8PlAZ-38" value="Dungeon Room" style="swimlane;fontStyle=1;align=center;verticalAlign=top;childLayout=stackLayout;horizontal=1;startSize=26;horizontalStack=0;resizeParent=1;resizeParentMax=0;resizeLast=0;collapsible=1;marginBottom=0;whiteSpace=wrap;html=1;" vertex="1" parent="1">
          <mxGeometry x="580" y="400" width="190" height="330" as="geometry">
            <mxRectangle x="580" y="400" width="120" height="30" as="alternateBounds" />
          </mxGeometry>
        </mxCell>
        <mxCell id="iLqWerZTy7hUYoZ8PlAZ-39" value="&lt;div&gt;-roomType: String&lt;/div&gt;&lt;div&gt;-roomLength: int&lt;/div&gt;&lt;div&gt;-roomWidth: int&lt;/div&gt;&lt;div&gt;-roomDoors: int&lt;/div&gt;&lt;div&gt;-roomItems: Dict: items&lt;/div&gt;" style="text;strokeColor=none;fillColor=none;align=left;verticalAlign=top;spacingLeft=4;spacingRight=4;overflow=hidden;rotatable=0;points=[[0,0.5],[1,0.5]];portConstraint=eastwest;whiteSpace=wrap;html=1;" vertex="1" parent="iLqWerZTy7hUYoZ8PlAZ-38">
          <mxGeometry y="26" width="190" height="84" as="geometry" />
        </mxCell>
        <mxCell id="iLqWerZTy7hUYoZ8PlAZ-40" value="" style="line;strokeWidth=1;fillColor=none;align=left;verticalAlign=middle;spacingTop=-1;spacingLeft=3;spacingRight=3;rotatable=0;labelPosition=right;points=[];portConstraint=eastwest;strokeColor=inherit;" vertex="1" parent="iLqWerZTy7hUYoZ8PlAZ-38">
          <mxGeometry y="110" width="190" height="8" as="geometry" />
        </mxCell>
        <mxCell id="iLqWerZTy7hUYoZ8PlAZ-41" value="&lt;div&gt;+getType(): String&lt;/div&gt;&lt;div&gt;&lt;br&gt;&lt;/div&gt;&lt;div&gt;+getLength(): int&lt;/div&gt;&lt;div&gt;&lt;br&gt;&lt;/div&gt;&lt;div&gt;+getWidth(): int&lt;/div&gt;&lt;div&gt;&lt;br&gt;&lt;/div&gt;&lt;div&gt;+getDoors(): int&lt;/div&gt;&lt;div&gt;&lt;br&gt;&lt;/div&gt;&lt;div&gt;-setItems(roomType): void&lt;/div&gt;&lt;div&gt;&lt;br&gt;&lt;/div&gt;&lt;div&gt;-setRoomType(String: type) void&lt;/div&gt;&lt;div&gt;&lt;br&gt;&lt;/div&gt;&lt;div&gt;-placeEnemies(int: amount) void&lt;/div&gt;&lt;div&gt;&lt;br&gt;&lt;/div&gt;&lt;div&gt;&lt;br&gt;&lt;/div&gt;" style="text;strokeColor=none;fillColor=none;align=left;verticalAlign=top;spacingLeft=4;spacingRight=4;overflow=hidden;rotatable=0;points=[[0,0.5],[1,0.5]];portConstraint=eastwest;whiteSpace=wrap;html=1;" vertex="1" parent="iLqWerZTy7hUYoZ8PlAZ-38">
          <mxGeometry y="118" width="190" height="212" as="geometry" />
        </mxCell>
        <mxCell id="iLqWerZTy7hUYoZ8PlAZ-42" value="Extends" style="endArrow=block;endSize=16;endFill=0;html=1;rounded=0;exitX=0.5;exitY=0;exitDx=0;exitDy=0;" edge="1" parent="1" source="iLqWerZTy7hUYoZ8PlAZ-38" target="iLqWerZTy7hUYoZ8PlAZ-23">
          <mxGeometry width="160" relative="1" as="geometry">
            <mxPoint x="420" y="450" as="sourcePoint" />
            <mxPoint x="580" y="450" as="targetPoint" />
            <Array as="points" />
          </mxGeometry>
        </mxCell>
        <mxCell id="iLqWerZTy7hUYoZ8PlAZ-43" value="LayoutGenerator" style="swimlane;fontStyle=1;align=center;verticalAlign=top;childLayout=stackLayout;horizontal=1;startSize=26;horizontalStack=0;resizeParent=1;resizeParentMax=0;resizeLast=0;collapsible=1;marginBottom=0;whiteSpace=wrap;html=1;" vertex="1" parent="1">
          <mxGeometry x="250" y="440" width="280" height="240" as="geometry" />
        </mxCell>
        <mxCell id="iLqWerZTy7hUYoZ8PlAZ-44" value="&lt;div&gt;-dungeonSize: int&lt;/div&gt;&lt;div&gt;-difficulty: int&lt;/div&gt;" style="text;strokeColor=none;fillColor=none;align=left;verticalAlign=top;spacingLeft=4;spacingRight=4;overflow=hidden;rotatable=0;points=[[0,0.5],[1,0.5]];portConstraint=eastwest;whiteSpace=wrap;html=1;" vertex="1" parent="iLqWerZTy7hUYoZ8PlAZ-43">
          <mxGeometry y="26" width="280" height="44" as="geometry" />
        </mxCell>
        <mxCell id="iLqWerZTy7hUYoZ8PlAZ-45" value="" style="line;strokeWidth=1;fillColor=none;align=left;verticalAlign=middle;spacingTop=-1;spacingLeft=3;spacingRight=3;rotatable=0;labelPosition=right;points=[];portConstraint=eastwest;strokeColor=inherit;" vertex="1" parent="iLqWerZTy7hUYoZ8PlAZ-43">
          <mxGeometry y="70" width="280" height="8" as="geometry" />
        </mxCell>
        <mxCell id="iLqWerZTy7hUYoZ8PlAZ-46" value="&lt;div&gt;+getSize(): int&lt;/div&gt;&lt;div&gt;&lt;br&gt;&lt;/div&gt;&lt;div&gt;+getDifficulty(): int&lt;/div&gt;&lt;div&gt;&lt;br&gt;&lt;/div&gt;&lt;div&gt;+setSize(int: size) void&lt;/div&gt;&lt;div&gt;&lt;br&gt;&lt;/div&gt;&lt;div&gt;+setDifficulty(int: difficulty) void&lt;/div&gt;&lt;div&gt;&lt;br&gt;&lt;/div&gt;&lt;div&gt;-generateStructure(dSize: int, dDiff: int) Collection: Dungon Room &lt;br&gt;&lt;/div&gt;&lt;div&gt;&lt;br&gt;&lt;/div&gt;&lt;div&gt;&lt;br&gt;&lt;/div&gt;" style="text;strokeColor=none;fillColor=none;align=left;verticalAlign=top;spacingLeft=4;spacingRight=4;overflow=hidden;rotatable=0;points=[[0,0.5],[1,0.5]];portConstraint=eastwest;whiteSpace=wrap;html=1;" vertex="1" parent="iLqWerZTy7hUYoZ8PlAZ-43">
          <mxGeometry y="78" width="280" height="162" as="geometry" />
        </mxCell>
        <mxCell id="iLqWerZTy7hUYoZ8PlAZ-47" value="Pillar of OO" style="html=1;whiteSpace=wrap;" vertex="1" parent="1">
          <mxGeometry x="700" y="780" width="110" height="50" as="geometry" />
        </mxCell>
        <mxCell id="iLqWerZTy7hUYoZ8PlAZ-48" value="" style="endArrow=diamondThin;endFill=1;endSize=24;html=1;rounded=0;exitX=0.509;exitY=1.008;exitDx=0;exitDy=0;exitPerimeter=0;entryX=0.5;entryY=0;entryDx=0;entryDy=0;" edge="1" parent="1" source="iLqWerZTy7hUYoZ8PlAZ-41" target="iLqWerZTy7hUYoZ8PlAZ-47">
          <mxGeometry width="160" relative="1" as="geometry">
            <mxPoint x="420" y="620" as="sourcePoint" />
            <mxPoint x="580" y="620" as="targetPoint" />
          </mxGeometry>
        </mxCell>
        <mxCell id="iLqWerZTy7hUYoZ8PlAZ-50" value="" style="endArrow=diamondThin;endFill=1;endSize=24;html=1;rounded=0;exitX=1;exitY=0.5;exitDx=0;exitDy=0;entryX=0;entryY=0.005;entryDx=0;entryDy=0;entryPerimeter=0;" edge="1" parent="1" source="iLqWerZTy7hUYoZ8PlAZ-46" target="iLqWerZTy7hUYoZ8PlAZ-41">
          <mxGeometry width="160" relative="1" as="geometry">
            <mxPoint x="420" y="680" as="sourcePoint" />
            <mxPoint x="580" y="680" as="targetPoint" />
          </mxGeometry>
        </mxCell>
        <mxCell id="iLqWerZTy7hUYoZ8PlAZ-52" value="" style="endArrow=diamondThin;endFill=1;endSize=24;html=1;rounded=0;exitX=0.512;exitY=1.002;exitDx=0;exitDy=0;exitPerimeter=0;entryX=1;entryY=0;entryDx=0;entryDy=0;" edge="1" parent="1" source="iLqWerZTy7hUYoZ8PlAZ-41" target="iLqWerZTy7hUYoZ8PlAZ-53">
          <mxGeometry width="160" relative="1" as="geometry">
            <mxPoint x="380" y="760" as="sourcePoint" />
            <mxPoint x="540" y="760" as="targetPoint" />
          </mxGeometry>
        </mxCell>
        <mxCell id="iLqWerZTy7hUYoZ8PlAZ-53" value="&lt;div&gt;&amp;lt;&amp;lt;Art Asset&amp;gt;&amp;gt;&lt;/div&gt;&lt;div&gt;TileSet&lt;/div&gt;" style="html=1;whiteSpace=wrap;" vertex="1" parent="1">
          <mxGeometry x="550" y="780" width="110" height="50" as="geometry" />
        </mxCell>
        <mxCell id="iLqWerZTy7hUYoZ8PlAZ-54" value="" style="endArrow=diamondThin;endFill=1;endSize=24;html=1;rounded=0;exitX=0.995;exitY=1.035;exitDx=0;exitDy=0;exitPerimeter=0;entryX=0.25;entryY=0;entryDx=0;entryDy=0;" edge="1" parent="1" source="iLqWerZTy7hUYoZ8PlAZ-46" target="iLqWerZTy7hUYoZ8PlAZ-53">
          <mxGeometry width="160" relative="1" as="geometry">
            <mxPoint x="350" y="750" as="sourcePoint" />
            <mxPoint x="510" y="750" as="targetPoint" />
          </mxGeometry>
        </mxCell>
        <mxCell id="iLqWerZTy7hUYoZ8PlAZ-55" value="" style="endArrow=diamondThin;endFill=1;endSize=24;html=1;rounded=0;entryX=0;entryY=0.5;entryDx=0;entryDy=0;" edge="1" parent="1" target="iLqWerZTy7hUYoZ8PlAZ-53">
          <mxGeometry width="160" relative="1" as="geometry">
            <mxPoint x="220" y="750" as="sourcePoint" />
            <mxPoint x="380" y="750" as="targetPoint" />
          </mxGeometry>
        </mxCell>
      </root>
    </mxGraphModel>
  </diagram>
</mxfile>
